<svg version="1.1" id="Layer_1" xmlns="http://www.w3.org/2000/svg" xmlns:xlink="http://www.w3.org/1999/xlink" x="0px" y="0px"
	 width="100%" viewBox="0 0 200 200" enable-background="new 0 0 200 200" xml:space="preserve">
<path fill="#010101" opacity="1.000000" stroke="none" 
	d="
M112.000000,201.000000 
	C74.689697,201.000000 37.879398,201.000000 1.034549,201.000000 
	C1.034549,134.398071 1.034549,67.796112 1.034549,1.097080 
	C67.560135,1.097080 134.120453,1.097080 200.840393,1.097080 
	C200.840393,67.666359 200.840393,134.333145 200.840393,201.000000 
	C171.463058,201.000000 141.981537,201.000000 112.000000,201.000000 
M148.994049,90.296585 
	C149.318542,90.557999 149.643021,90.819412 150.273560,91.696426 
	C152.749374,94.242195 156.081223,96.298912 155.069855,100.735687 
	C153.735764,106.588181 158.012650,109.019684 162.165588,112.517982 
	C162.165588,106.571327 162.165588,101.458214 162.165588,96.151268 
	C164.450073,96.017670 166.453445,95.900513 168.456802,95.783356 
	C162.684265,91.570656 161.115128,86.004356 162.106659,79.684647 
	C159.442108,79.684647 157.483810,79.684647 155.010666,79.684647 
	C155.010666,82.942696 155.010666,86.015167 155.010666,89.024849 
	C153.003174,89.195160 151.516022,89.321327 149.453766,89.282837 
	C149.331802,89.440598 149.209854,89.598358 148.590073,89.458298 
	C148.397964,89.480301 148.205856,89.502304 147.408020,89.146523 
	C146.937973,89.165993 146.467911,89.185463 145.182556,89.045525 
	C142.274033,89.520622 140.970032,88.464500 141.400833,85.375832 
	C141.573761,84.135925 141.248520,82.826530 141.675842,81.036049 
	C143.679413,82.491089 145.682983,83.946121 147.977509,85.612457 
	C147.977509,83.325363 147.977509,81.277985 147.977509,78.584091 
	C145.502182,79.047752 143.236038,79.472237 140.275833,79.942123 
	C138.278564,82.306313 134.777710,84.539970 134.559036,87.058586 
	C133.831879,95.434189 134.284027,103.912170 134.284027,112.546806 
	C136.882980,112.546806 138.949661,112.546806 141.013443,112.546806 
	C142.877045,105.295982 138.216797,96.739372 146.669373,90.913185 
	C147.117538,90.433876 147.565720,89.954567 148.559998,89.608345 
	C148.746750,89.619873 148.933517,89.631409 148.994049,90.296585 
M68.170380,104.372444 
	C71.840950,98.622864 70.122276,94.547241 62.735031,89.718994 
	C62.735031,95.215294 62.735031,100.432434 62.735031,105.787033 
	C60.167988,105.787033 58.072689,105.787033 55.408707,105.787033 
	C56.483559,99.121788 55.956142,93.170380 48.551548,90.024422 
	C48.551548,95.380699 48.551548,100.476295 48.551548,105.778839 
	C46.171349,105.778839 44.091366,105.778839 41.434410,105.778839 
	C41.434410,100.182655 41.434410,94.810165 41.434410,89.436157 
	C38.905499,89.436157 36.955753,89.436157 35.131474,89.436157 
	C32.082108,100.098755 36.235584,107.440025 45.383076,112.823311 
	C47.622330,110.867950 49.930351,108.852539 52.194176,106.875725 
	C54.660080,109.066444 56.866314,111.026474 60.208427,113.995636 
	C62.834160,110.831856 65.268181,107.899078 68.170380,104.372444 
M112.942299,112.021240 
	C122.776306,115.699677 132.212097,108.831017 131.007065,100.197021 
	C130.119064,93.834702 126.044670,89.219742 119.210426,89.213966 
	C111.691673,89.207611 107.556847,93.375893 106.927406,100.090256 
	C106.434799,105.344910 108.801910,108.527687 112.942299,112.021240 
M92.613907,99.979202 
	C93.632401,99.022438 94.650902,98.065674 96.135910,96.670677 
	C96.135910,100.045227 96.135910,102.657372 96.135910,104.295517 
	C92.799500,107.035187 89.934181,109.388023 87.068863,111.740852 
	C87.314674,112.302994 87.560486,112.865128 87.806297,113.427261 
	C91.333000,112.688332 95.150848,112.568306 98.323151,111.075996 
	C104.142273,108.338547 104.054276,102.686310 103.500359,97.280807 
	C103.117737,93.546890 96.200600,88.303085 93.477333,89.408615 
	C87.122856,91.988266 82.232567,101.478027 83.674530,109.341682 
	C86.659859,106.211090 89.380348,103.358215 92.613907,99.979202 
M80.361870,99.530823 
	C80.361870,96.234406 80.361870,92.937988 80.361870,89.490990 
	C78.955734,89.379852 77.988007,89.233009 77.022339,89.245544 
	C75.910942,89.259956 74.801369,89.415268 73.733185,89.505814 
	C72.970604,107.482536 71.711159,105.982758 80.361839,112.114807 
	C80.361839,108.066452 80.361839,104.285164 80.361870,99.530823 
M79.706879,85.715431 
	C80.004379,83.741684 80.301888,81.767937 80.622169,79.643066 
	C77.983917,79.643066 76.123909,79.643066 74.263893,79.643066 
	C74.034027,79.969643 73.804161,80.296219 73.574295,80.622795 
	C75.400925,82.226151 77.227547,83.829514 79.706879,85.715431 
z"/>
<path fill="#F0F0F0" opacity="1.000000" stroke="none" 
	d="
M67.936295,104.669373 
	C65.268181,107.899078 62.834160,110.831856 60.208427,113.995636 
	C56.866314,111.026474 54.660080,109.066444 52.194176,106.875725 
	C49.930351,108.852539 47.622330,110.867950 45.383076,112.823311 
	C36.235584,107.440025 32.082108,100.098755 35.131474,89.436157 
	C36.955753,89.436157 38.905499,89.436157 41.434410,89.436157 
	C41.434410,94.810165 41.434410,100.182655 41.434410,105.778839 
	C44.091366,105.778839 46.171349,105.778839 48.551548,105.778839 
	C48.551548,100.476295 48.551548,95.380699 48.551548,90.024422 
	C55.956142,93.170380 56.483559,99.121788 55.408707,105.787033 
	C58.072689,105.787033 60.167988,105.787033 62.735031,105.787033 
	C62.735031,100.432434 62.735031,95.215294 62.735031,89.718994 
	C70.122276,94.547241 71.840950,98.622864 67.936295,104.669373 
z"/>
<path fill="#F2F2F2" opacity="1.000000" stroke="none" 
	d="
M112.654602,111.752167 
	C108.801910,108.527687 106.434799,105.344910 106.927406,100.090256 
	C107.556847,93.375893 111.691673,89.207611 119.210426,89.213966 
	C126.044670,89.219742 130.119064,93.834702 131.007065,100.197021 
	C132.212097,108.831017 122.776306,115.699677 112.654602,111.752167 
M123.695404,99.634506 
	C122.898186,91.868340 117.415497,97.901115 114.389587,95.520874 
	C114.389587,99.570778 114.389587,102.637550 114.389587,105.725220 
	C117.561699,105.725220 120.461189,105.725220 123.695488,105.725220 
	C123.695488,103.804230 123.695488,102.171776 123.695404,99.634506 
z"/>
<path fill="#EFEFEF" opacity="1.000000" stroke="none" 
	d="
M92.357376,100.242271 
	C89.380348,103.358215 86.659859,106.211090 83.674530,109.341682 
	C82.232567,101.478027 87.122856,91.988266 93.477333,89.408615 
	C96.200600,88.303085 103.117737,93.546890 103.500359,97.280807 
	C104.054276,102.686310 104.142273,108.338547 98.323151,111.075996 
	C95.150848,112.568306 91.333000,112.688332 87.806297,113.427261 
	C87.560486,112.865128 87.314674,112.302994 87.068863,111.740852 
	C89.934181,109.388023 92.799500,107.035187 96.135910,104.295517 
	C96.135910,102.657372 96.135910,100.045227 96.135910,96.670677 
	C94.650902,98.065674 93.632401,99.022438 92.357376,100.242271 
z"/>
<path fill="#F7F7F7" opacity="1.000000" stroke="none" 
	d="
M150.028885,89.447495 
	C151.516022,89.321327 153.003174,89.195160 155.010666,89.024849 
	C155.010666,86.015167 155.010666,82.942696 155.010666,79.684647 
	C157.483810,79.684647 159.442108,79.684647 162.106659,79.684647 
	C161.115128,86.004356 162.684265,91.570656 168.456802,95.783356 
	C166.453445,95.900513 164.450073,96.017670 162.165588,96.151268 
	C162.165588,101.458214 162.165588,106.571327 162.165588,112.517982 
	C158.012650,109.019684 153.735764,106.588181 155.069855,100.735687 
	C156.081223,96.298912 152.749374,94.242195 150.134705,91.116486 
	C150.006851,90.173531 150.017868,89.810516 150.028885,89.447495 
z"/>
<path fill="#EDEDED" opacity="1.000000" stroke="none" 
	d="
M141.150024,81.548767 
	C141.248520,82.826530 141.573761,84.135925 141.400833,85.375832 
	C140.970032,88.464500 142.274033,89.520622 145.592255,89.454117 
	C146.024155,90.300766 146.046341,90.738831 146.068527,91.176895 
	C138.216797,96.739372 142.877045,105.295982 141.013443,112.546806 
	C138.949661,112.546806 136.882980,112.546806 134.284027,112.546806 
	C134.284027,103.912170 133.831879,95.434189 134.559036,87.058586 
	C134.777710,84.539970 138.278564,82.306313 140.661957,80.333092 
	C141.082047,80.998962 141.116043,81.273865 141.150024,81.548767 
z"/>
<path fill="#EFEFEF" opacity="1.000000" stroke="none" 
	d="
M80.361855,100.017349 
	C80.361839,104.285164 80.361839,108.066452 80.361839,112.114807 
	C71.711159,105.982758 72.970604,107.482536 73.733185,89.505814 
	C74.801369,89.415268 75.910942,89.259956 77.022339,89.245544 
	C77.988007,89.233009 78.955734,89.379852 80.361870,89.490990 
	C80.361870,92.937988 80.361870,96.234406 80.361855,100.017349 
z"/>
<path fill="#EBEBEB" opacity="1.000000" stroke="none" 
	d="
M141.412933,81.292404 
	C141.116043,81.273865 141.082047,80.998962 141.008972,80.310387 
	C143.236038,79.472237 145.502182,79.047752 147.977509,78.584091 
	C147.977509,81.277985 147.977509,83.325363 147.977509,85.612457 
	C145.682983,83.946121 143.679413,82.491089 141.412933,81.292404 
z"/>
<path fill="#D5D5D5" opacity="1.000000" stroke="none" 
	d="
M79.380524,85.574158 
	C77.227547,83.829514 75.400925,82.226151 73.574295,80.622795 
	C73.804161,80.296219 74.034027,79.969643 74.263893,79.643066 
	C76.123909,79.643066 77.983917,79.643066 80.622169,79.643066 
	C80.301888,81.767937 80.004379,83.741684 79.380524,85.574158 
z"/>
<path fill="#EBEBEB" opacity="1.000000" stroke="none" 
	d="
M146.368958,91.045044 
	C146.046341,90.738831 146.024155,90.300766 145.999908,89.533813 
	C146.467911,89.185463 146.937973,89.165993 147.712418,89.323212 
	C148.016815,89.499908 148.013885,89.475258 148.013885,89.475258 
	C147.565720,89.954567 147.117538,90.433876 146.368958,91.045044 
z"/>
<path fill="#EBEBEB" opacity="1.000000" stroke="none" 
	d="
M149.741333,89.365166 
	C150.017868,89.810516 150.006851,90.173531 149.981674,90.808693 
	C149.643021,90.819412 149.318542,90.557999 149.042786,89.996445 
	C149.091537,89.696297 149.087891,89.756119 149.087891,89.756119 
	C149.209854,89.598358 149.331802,89.440598 149.741333,89.365166 
z"/>
<path fill="#F7F7F7" opacity="1.000000" stroke="none" 
	d="
M148.838989,89.607208 
	C149.087891,89.756119 149.091537,89.696297 149.105896,89.669617 
	C148.933517,89.631409 148.746750,89.619873 148.286942,89.541801 
	C148.013885,89.475258 148.016815,89.499908 148.015289,89.512100 
	C148.205856,89.502304 148.397964,89.480301 148.838989,89.607208 
z"/>
<path fill="#0F0F0F" opacity="1.000000" stroke="none" 
	d="
M123.695450,100.086914 
	C123.695488,102.171776 123.695488,103.804230 123.695488,105.725220 
	C120.461189,105.725220 117.561699,105.725220 114.389587,105.725220 
	C114.389587,102.637550 114.389587,99.570778 114.389587,95.520874 
	C117.415497,97.901115 122.898186,91.868340 123.695450,100.086914 
z"/>
</svg>